<svg width="1em" height="1em" viewBox="0 0 32 32" xmlns="http://www.w3.org/2000/svg" xmlns:xlink="http://www.w3.org/1999/xlink">
    <circle cx="16" cy="16" r="9" style="fill:none;stroke:#0a0;stroke-width:4"/>
    <polyline points="6,12 0,14 0,18 6,20" style="fill:#0a0;"/>
    <g transform="rotate(60 16 16)">
       <polyline points="6,12 0,14 0,18 6,20" style="fill:#0a0;"/>
    </g>
    <g transform="rotate(120 16 16)">
       <polyline points="6,12 0,14 0,18 6,20" style="fill:#0a0;"/>
    </g>
    <g transform="rotate(180 16 16)">
       <polyline points="6,12 0,14 0,18 6,20" style="fill:#0a0;"/>
    </g>
    <g transform="rotate(240 16 16)">
       <polyline points="6,12 0,14 0,18 6,20" style="fill:#0a0;"/>
    </g>
    <g transform="rotate(300 16 16)">
       <polyline points="6,12 0,14 0,18 6,20" style="fill:#0a0;"/>
    </g>
</svg>
